<svg xmlns="http://www.w3.org/2000/svg" xmlns:xlink="http://www.w3.org/1999/xlink" width="39" height="34" viewBox="0 0 39 34"><defs><path id="hx60a" d="M1317.4 559.43l.21.26 9.26 13.4c.05.07.1.14.13.22l-11.74-2.29zm-26.44 16.6l.19-.16 23.96-16.64.13-.08-3.67 19.92a.63.63 0 0 1-.73.5zm35.65-.59c-.06.06-.12.11-.2.16l-23.95 16.64-.29.16 2-11.81 6.3 1.13a2.8 2.8 0 0 0 3.23-2.25l1.17-6.3zm-26.55 16.47a1.8 1.8 0 0 1-.1-.13l-9.26-13.4a1.8 1.8 0 0 1-.13-.22l11.46 2.05zm5.71-30.82h-16.73a1.04 1.04 0 0 1 0-2.1h16.73a1.04 1.04 0 0 1 0 2.1zm-5.85 3.9h-10.84c-.6 0-1.08-.45-1.08-1s.48-1 1.08-1h10.84c.6 0 1.08.45 1.08 1s-.48 1-1.08 1zm-6.91 4.02h-4.02a1 1 0 0 1-.99-1.01 1 1 0 0 1 .99-1.01h4.02a1 1 0 0 1 .99 1 1 1 0 0 1-.99 1.02zm0 21.99h-4.02a1 1 0 0 1-.99-1 1 1 0 0 1 .99-1h4.02a1 1 0 0 1 .99 1 1 1 0 0 1-.99 1z"/></defs><g><g transform="translate(-1288 -559)"><use fill="#7eceff" xlink:href="#hx60a"/><use fill="#c80000" xlink:href="#hx60a"/></g></g></svg>